PathFileType	4	(X/Y/Z)	s06c0303.trc
DataRate	CameraRate	NumFrames	NumMarkers	Units	OrigDataRate	OrigDataStartFrame	OrigNumFrames
200	200	4	48	mm	200	750	2000
Frame#	Time	racr			lacr			c7			jug			rlel			rdr			llel			ldr			s2			lic			ric			lasi			rasi			rpsi			lpsi			rgt			lgt			rth1			rth2			rth3			rth4			rlfc			rmfc			rsh1			rsh2			rsh3			rsh4			rlmal			rcal			rtoe			rmt5			lth1			lth2			lth4			lth3			llfc			lmfc			llmal			lcal			lmt5			lsh1			lsh2			lsh3			lsh4			ltoe			SBIKE			LBIKE			RBIKE			
		X1	Y1	Z1	X2	Y2	Z2	X3	Y3	Z3	X4	Y4	Z4	X5	Y5	Z5	X6	Y6	Z6	X7	Y7	Z7	X8	Y8	Z8	X9	Y9	Z9	X10	Y10	Z10	X11	Y11	Z11	X12	Y12	Z12	X13	Y13	Z13	X14	Y14	Z14	X15	Y15	Z15	X16	Y16	Z16	X17	Y17	Z17	X18	Y18	Z18	X19	Y19	Z19	X20	Y20	Z20	X21	Y21	Z21	X22	Y22	Z22	X23	Y23	Z23	X24	Y24	Z24	X25	Y25	Z25	X26	Y26	Z26	X27	Y27	Z27	X28	Y28	Z28	X29	Y29	Z29	X30	Y30	Z30	X31	Y31	Z31	X32	Y32	Z32	X33	Y33	Z33	X34	Y34	Z34	X35	Y35	Z35	X36	Y36	Z36	X37	Y37	Z37	X38	Y38	Z38	X39	Y39	Z39	X40	Y40	Z40	X41	Y41	Z41	X42	Y42	Z42	X43	Y43	Z43	X44	Y44	Z44	X45	Y45	Z45	X46	Y46	Z46	X47	Y47	Z47	X48	Y48	Z48	
750	3.7500	690.509731	1279.705331	-103.184847	722.187522	1186.291292	-398.667907	727.428298	1310.488695	-261.604091	666.527450	1159.190454	-231.640371	590.422021	1086.225520	60.545587	718.121146	917.167051	-35.667303	522.181648	1023.784946	-502.106604	696.591763	927.999330	-412.901186	146.240698	1223.787192	-225.117147	289.103154	1141.713669	-401.817450	295.342793	1177.228755	-72.726583	317.367873	1127.110307	-359.661671	316.491380	1126.615783	-107.697267	187.519640	1257.875021	-198.688050	184.445446	1252.937331	-258.361693	260.405014	1098.944766	-26.757900	243.544153	1083.576678	-420.511326	337.996066	998.649341	-22.861807	400.832242	933.465295	-30.387629	423.509704	850.258041	-28.037989	427.548325	951.310041	-50.272338	434.211053	747.275329	-42.589230	415.900888	727.831591	-151.445579	340.873858	668.036982	-19.115323	284.589641	605.494029	-40.468398	202.361445	573.050705	-43.723293	298.646182	590.789473	-75.625801	129.162055	538.965470	-48.857860	80.658267	579.266510	-98.652264	152.885734	311.232060	-91.675934	102.163824	398.717804	-25.419930	263.150350	956.252930	-439.602625	310.479239	883.390283	-434.063706	344.911188	894.932603	-426.481253	314.316619	794.344115	-425.745918	331.827074	677.236151	-404.270317	340.626721	662.271175	-291.151724	249.312688	309.628464	-372.733961	178.315818	287.159650	-322.656775	367.829614	235.482795	-400.206470	309.038793	567.820261	-420.518458	311.891208	483.305208	-397.990868	271.573172	405.063972	-390.944868	340.190313	482.679913	-370.168626	455.020900	236.917135	-342.471467	-162.838690	859.060525	-225.697420	-53.382057	79.916662	-406.604365	-52.564737	80.248668	-9.212242	
751	3.7550	689.201087	1281.453510	-102.209476	723.892949	1186.613383	-395.800787	726.950973	1312.378224	-259.768898	667.650580	1160.389651	-230.124068	589.664492	1086.139321	60.531121	718.198053	917.358916	-35.670354	524.428861	1025.140346	-502.645224	697.025696	927.782760	-412.858759	147.548870	1219.512370	-229.411419	291.933430	1136.933272	-402.867976	294.130611	1178.712481	-74.160584	318.392766	1123.292002	-359.415553	316.054543	1127.504361	-107.795549	186.667922	1255.521300	-202.999256	184.798573	1249.291205	-262.740993	259.929756	1101.893400	-27.134889	244.857451	1077.278531	-421.149337	340.985222	1002.601665	-22.868914	404.944572	939.138044	-28.961946	430.187691	856.364807	-26.505071	432.010583	957.447531	-48.515587	443.125149	753.612337	-41.136869	426.570840	734.565874	-151.208371	349.826477	674.973100	-17.917185	292.618875	613.215025	-39.571230	209.942342	581.985370	-42.783391	306.310591	598.625560	-74.281576	135.913895	548.457302	-47.920287	87.708393	588.759943	-97.947356	159.087337	320.370786	-91.841217	108.572362	407.913950	-25.339899	262.065589	949.063755	-439.326983	307.953625	875.309297	-432.841792	342.377565	886.009808	-425.418746	309.822132	786.339794	-424.245090	325.321253	669.411295	-402.533096	333.248190	654.679070	-288.810885	244.229973	301.377690	-372.659250	173.450540	279.956190	-322.704130	362.374094	225.807920	-399.761403	303.135867	559.819568	-419.305863	306.344233	475.424399	-397.014447	266.429103	396.829973	-390.412398	334.289849	474.881519	-368.785445	449.549890	226.046375	-341.954449	-163.029464	859.149450	-225.938289	-53.371541	79.889755	-406.560656	-52.556995	80.240318	-9.177002	
752	3.7600	687.826303	1283.131336	-100.997739	725.592217	1187.763168	-393.952697	726.347224	1314.256075	-257.587793	668.387418	1161.678707	-228.353053	589.530771	1085.988320	61.062571	718.437092	917.293909	-35.373461	526.747460	1026.748927	-502.512441	697.887788	928.157663	-412.849815	149.315558	1215.643545	-234.187415	294.897959	1132.120258	-403.807118	292.609948	1180.335825	-75.736940	319.403817	1119.511023	-359.184970	315.653245	1128.664789	-107.919241	186.220552	1252.828924	-207.680751	185.466521	1245.427062	-267.373273	259.763009	1105.137262	-27.758577	246.540040	1070.795274	-420.868898	343.721865	1006.610296	-22.746087	409.986214	944.356513	-27.978635	436.531572	862.556979	-25.172903	436.332657	963.643777	-46.761054	451.782080	760.694949	-39.766911	435.494961	740.621119	-148.853681	358.610593	682.198424	-16.982633	300.739185	621.051029	-38.564610	217.757279	590.643616	-41.893081	315.334157	606.379661	-72.970579	143.046062	557.322489	-47.210188	94.771408	597.810140	-97.729570	165.884610	329.193406	-92.117636	115.505153	416.739870	-25.271111	260.953021	942.387669	-438.997952	304.998061	867.851990	-432.237627	339.795420	877.668192	-424.058596	305.156404	778.728713	-422.808488	318.343526	661.847820	-400.628365	324.566317	647.205650	-287.447397	238.597539	293.612755	-372.435807	168.057726	273.299425	-322.678432	356.343520	216.664262	-399.403469	296.562284	552.459375	-418.378247	300.126998	467.732284	-396.078733	260.570544	389.041471	-389.971394	327.920107	467.343776	-367.652116	443.482827	215.440694	-341.463958	-162.804182	859.282272	-226.430819	-53.335119	79.927594	-406.569665	-52.529752	80.234261	-9.158761	
753	3.7650	686.400353	1284.718636	-99.704958	727.151648	1189.453086	-392.234035	725.683524	1316.099538	-255.276421	668.837454	1163.015258	-226.543185	588.400164	1085.875973	60.665878	718.496461	917.366929	-35.244646	529.025995	1028.457271	-501.806928	699.216198	927.889205	-410.036777	148.793231	1212.431790	-238.587452	297.947091	1127.334195	-404.609782	290.720032	1182.059882	-77.692424	320.396681	1115.787591	-358.974348	314.818852	1129.953701	-108.403051	185.578943	1250.217603	-212.501488	185.969647	1241.422160	-271.956315	259.424800	1108.506397	-28.543687	248.343102	1064.365927	-421.023420	346.117278	1010.798589	-22.822067	414.077264	950.143297	-27.088598	442.359027	868.872001	-24.202840	440.183129	970.124483	-45.123039	460.372160	767.868962	-38.381006	445.070023	746.948658	-147.680685	367.154598	689.632542	-15.991822	308.936271	628.935862	-37.387062	225.563052	599.330595	-41.061316	323.135197	613.446774	-72.245569	150.345287	565.890992	-46.505652	102.019062	606.462680	-97.310587	173.500600	337.883245	-92.318050	123.047957	425.093113	-25.258266	259.889740	936.219894	-438.806985	302.046672	860.733834	-431.490161	337.179111	869.734478	-423.172606	300.091571	771.723372	-421.495603	311.011973	654.885534	-399.350902	315.898910	640.058982	-286.251613	232.480168	286.434798	-372.082455	162.265765	267.430620	-322.520320	349.778968	207.907519	-399.017423	288.771010	544.966953	-416.422132	293.211431	460.673277	-395.390706	253.968881	381.848004	-389.764284	320.956362	460.377426	-366.947667	436.818294	205.227271	-341.150591	-162.962946	859.083156	-225.831715	-53.317814	79.934257	-406.566197	-52.513830	80.226358	-9.131688	
